<svg xmlns="http://www.w3.org/2000/svg" viewBox="0 0 116 58"><style>.st1{clip-path:url(#SVGID_2_)}.st1,.st2{fill:#fff}.st5,.st6{fill:none;stroke:#fff;stroke-width:.75;stroke-miterlimit:10}.st6{fill:#fff;stroke-width:.25}</style><g id="Слой_1"><defs><path id="SVGID_1_" d="M0 0h116v58H0z"/></defs><clipPath id="SVGID_2_"/><path class="st1" d="M51.72 56.41c0 .18-.15.33-.32.33M51.39 56.73H15.97c-.18 0-.33-.15-.33-.33M114.81 26.28v2.08"/><path class="st2" d="M35.51 7.2c0 1.54-.87 2.78-1.95 2.78s-1.95-1.24-1.95-2.78c0-1.54 1.95-6.72 1.95-6.72s1.95 5.19 1.95 6.72M45.13 52.67H21.81c-.17 0-.3-.14-.3-.31 0-.8.65-1.45 1.45-1.45H44c.8 0 1.45.65 1.45 1.45a.32.32 0 01-.32.31M15.44 55.59c0-.85.69-1.54 1.54-1.54h32.99c.85 0 1.54.69 1.54 1.54M54.29 12.46c-2.56-1.57-5.85.62-8.36.53-3.3-.11-9.14-1.93-12.26-1.93h-.11-.11c-3.12 0-8.96 1.83-12.26 1.93-2.51.08-5.8-2.1-8.36-.53-1.86 1.37-1.17 5.29-4.66 4.12.93 1.37 3.26.98 4.19 0 .7-1.18.01-3.33 1.99-3.4 2.71-.09 4.14 2.1 6.33 1.98 4.36-.25 21.26-.25 25.74 0 2.19.12 3.62-2.07 6.33-1.98 1.99.06 1.29 2.22 1.99 3.4.93.98 3.26 1.37 4.19 0-3.47 1.17-2.77-2.75-4.64-4.12"/><path class="st2" d="M11.98 26.03l5.3-10.96c.77.4.5 1.09.12 1.88l-4.27 9.08h-1.15z"/><path fill="none" stroke="#fff" stroke-width=".7" stroke-miterlimit="10" d="M4.97 26.77h21.7v11.59H4.97z"/><path class="st2" d="M6.9 28.3h17.85v8.53H6.9z"/><path d="M27.98 43.85H3.91l1.67-3.05c.18-.32.5-.52.86-.52h19.02c.36 0 .68.2.86.52l1.66 3.05z" fill="none" stroke="#fff" stroke-width=".5" stroke-miterlimit="10"/><path class="st2" d="M26.49 43.11h-21l1.1-1.97c.15-.19.8-.14 1.11-.14h16.59c.31 0 .92 0 1.08.19l1.12 1.92z"/><path class="st5" d="M59.69 38.72H40.88c-.97 0-1.76-.79-1.76-1.76V22.38h8.56l1.72 1.34h10.28v15z"/><path class="st5" d="M44.08 25.93H62.6v12.78H44.08z"/><path class="st6" d="M61.46 27.88H52.9c-.12 0-.23-.1-.23-.23 0-.12.1-.23.23-.23h8.56c.12 0 .23.1.23.23-.01.13-.11.23-.23.23zM61.46 28.99H52.9c-.12 0-.23-.1-.23-.23 0-.12.1-.23.23-.23h8.56c.12 0 .23.1.23.23-.01.13-.11.23-.23.23zM61.26 37.68H45.28c-.12 0-.23-.1-.23-.23 0-.12.1-.23.23-.23h15.98c.12 0 .23.1.23.23s-.1.23-.23.23zM44.99 26.96h.47v.47h-.47zM45.9 26.96h.47v.47h-.47zM46.8 26.96h.47v.47h-.47z"/><path class="st2" d="M32.42 50.15h2.28c0-.02.73-3.48.73-3.48l1.44-11.84-1.9-13.03-.24-3.89c0-.87-1.16-2.14-1.16-2.14s-1.16 1.27-1.16 2.14l-.25 4.04-1.9 12.88 1.44 11.84c-.01 0 .72 3.45.72 3.48M65.39 16.06h2.19v9.4h3.18v2.09h-5.37zM73.24 16.06h6.27v2.14h-4.1v2.07h4.1v2.11h-4.1v3.02h4.1v2.15h-6.27zM92.96 17.93l-1.54 1.52c-.98-1.03-2.11-1.55-3.41-1.55-1.13 0-2.08.38-2.84 1.12s-1.15 1.66-1.15 2.73c0 1.11.4 2.05 1.19 2.82.79.77 1.77 1.16 2.93 1.16.75 0 1.39-.16 1.91-.48.52-.32.94-.82 1.26-1.49h-3.33V21.7h5.78l.02.48c0 1-.26 1.96-.78 2.86-.52.9-1.19 1.59-2.02 2.06-.83.47-1.8.71-2.91.71-1.19 0-2.26-.26-3.19-.78-.93-.52-1.68-1.26-2.22-2.21s-.82-1.99-.82-3.1c0-1.52.5-2.84 1.51-3.97 1.19-1.34 2.75-2.01 4.66-2.01 1 0 1.94.19 2.81.56.72.33 1.43.87 2.14 1.63M100.09 16.06h2.22l4.42 11.49h-2.28l-.9-2.37h-4.69l-.94 2.37h-2.27l4.44-11.49zm1.12 3.04l-1.54 3.95h3.08l-1.54-3.95zM114.6 27.55h-5.38V16.06h2.19v9.4h3.19M66.91 35.26h2.59c1.67 0 2.91.21 3.72.62.81.41 1.48 1.09 2 2.02.53.93.79 2.02.79 3.27 0 .89-.15 1.7-.44 2.44-.29.74-.7 1.36-1.22 1.85s-1.08.83-1.68 1.02c-.6.19-1.65.28-3.14.28H66.9v-11.5zm2.18 2.11v7.25h1.02c1 0 1.72-.11 2.17-.34.45-.23.82-.62 1.11-1.16.29-.54.43-1.21.43-2 0-1.22-.34-2.17-1.02-2.84-.61-.6-1.6-.91-2.96-.91h-.75zM84.33 34.97c1.63 0 3.03.59 4.19 1.77 1.17 1.18 1.76 2.61 1.76 4.31 0 1.68-.58 3.1-1.73 4.26-1.15 1.16-2.55 1.74-4.2 1.74-1.72 0-3.16-.6-4.3-1.79-1.14-1.19-1.71-2.61-1.71-4.25 0-1.1.27-2.11.8-3.03a5.9 5.9 0 012.19-2.19c.93-.55 1.93-.82 3-.82m-.02 2.14c-1.06 0-1.96.37-2.68 1.11-.72.74-1.09 1.68-1.09 2.82 0 1.27.46 2.28 1.37 3.01.71.58 1.52.87 2.44.87 1.04 0 1.92-.38 2.65-1.12.73-.75 1.1-1.67 1.1-2.77 0-1.09-.37-2.02-1.1-2.78-.74-.76-1.63-1.14-2.69-1.14M103.71 37.28l-1.53 1.46c-1.04-1.1-2.21-1.65-3.51-1.65-1.1 0-2.02.38-2.77 1.13-.75.75-1.13 1.68-1.13 2.78 0 .77.17 1.45.5 2.04.33.6.8 1.06 1.41 1.4.61.34 1.29.51 2.03.51.64 0 1.22-.12 1.74-.35.53-.24 1.1-.67 1.73-1.3l1.48 1.55c-.85.83-1.65 1.4-2.41 1.72-.76.32-1.62.48-2.59.48-1.79 0-3.25-.57-4.39-1.7-1.14-1.13-1.71-2.58-1.71-4.36 0-1.15.26-2.16.78-3.06.52-.89 1.26-1.61 2.23-2.15.97-.54 2.01-.81 3.12-.81.95 0 1.86.2 2.74.6s1.64.97 2.28 1.71M112.45 36.82l-1.62 1.43c-.57-.79-1.15-1.19-1.74-1.19-.29 0-.52.08-.71.23-.18.15-.27.33-.27.52s.07.38.19.55c.18.23.71.72 1.61 1.48.83.7 1.34 1.14 1.52 1.32.44.45.76.88.94 1.28.18.41.28.86.28 1.34 0 .94-.33 1.72-.98 2.34-.65.61-1.5.92-2.55.92-.82 0-1.53-.2-2.14-.6-.61-.4-1.13-1.03-1.56-1.89l1.84-1.11c.55 1.02 1.19 1.52 1.91 1.52.38 0 .69-.11.95-.33.26-.22.38-.47.38-.76 0-.26-.1-.52-.29-.78-.19-.26-.62-.66-1.28-1.19-1.25-1.02-2.06-1.81-2.43-2.36-.36-.56-.55-1.11-.55-1.66 0-.8.3-1.48.91-2.05.61-.57 1.36-.86 2.25-.86.57 0 1.12.13 1.64.4.54.26 1.1.75 1.7 1.45M15.01 49.44c7.71 0 13.96-2.11 13.96-4.71H1.05c0 2.61 6.25 4.71 13.96 4.71M51.91 44.53c7.59 0 13.75-2.07 13.75-4.63h-27.5c0 2.56 6.16 4.63 13.75 4.63M56.24 22.82l-4.41-8.94c-.68.34-.44.93-.11 1.62l3.58 7.32h.94z"/></g></svg>